<?xml version="1.0" encoding="UTF-8"?>
<svg id="Capa_2" data-name="Capa 2" xmlns="http://www.w3.org/2000/svg" viewBox="0 0 5963.41 870.67">
  <defs>
    <style>
      .cls-1 {
        isolation: isolate;
      }

      .cls-2 {
        fill: #fff;
        stroke-width: 0px;
      }
    </style>
  </defs>
  <g id="Capa_1-2" data-name="Capa 1">
    <g class="cls-1">
      <path class="cls-2" d="M1139.64,652.53h19.81v144.79h-19.81v-144.79Z"/>
      <path class="cls-2" d="M1188.92,691.76h16.85v14.98c4.99-6.18,10.28-10.61,15.87-13.31,5.58-2.69,11.79-4.04,18.63-4.04,14.98,0,25.1,5.22,30.36,15.67,2.89,5.72,4.34,13.9,4.34,24.54v67.71h-18.04v-66.53c0-6.44-.95-11.63-2.86-15.57-3.15-6.57-8.87-9.86-17.15-9.86-4.21,0-7.66.43-10.35,1.28-4.86,1.45-9.13,4.34-12.81,8.67-2.96,3.48-4.88,7.08-5.77,10.79-.89,3.71-1.33,9.02-1.33,15.92v55.3h-17.74v-105.56Z"/>
      <path class="cls-2" d="M1301.19,691.76h16.85v14.98c4.99-6.18,10.28-10.61,15.87-13.31,5.58-2.69,11.79-4.04,18.63-4.04,14.98,0,25.1,5.22,30.36,15.67,2.89,5.72,4.34,13.9,4.34,24.54v67.71h-18.04v-66.53c0-6.44-.95-11.63-2.86-15.57-3.15-6.57-8.87-9.86-17.15-9.86-4.21,0-7.66.43-10.35,1.28-4.86,1.45-9.13,4.34-12.81,8.67-2.96,3.48-4.88,7.08-5.77,10.79-.89,3.71-1.33,9.02-1.33,15.92v55.3h-17.74v-105.56Z"/>
      <path class="cls-2" d="M1490.53,702.31c9.4,9.07,14.09,22.41,14.09,40.02s-4.14,31.08-12.42,42.19c-8.28,11.11-21.13,16.66-38.54,16.66-14.52,0-26.05-4.91-34.6-14.74-8.54-9.82-12.81-23.02-12.81-39.57,0-17.74,4.5-31.87,13.5-42.38,9-10.51,21.09-15.77,36.27-15.77,13.6,0,25.1,4.53,34.5,13.6ZM1479.54,772.53c4.37-8.9,6.55-18.81,6.55-29.72,0-9.86-1.58-17.87-4.73-24.05-4.99-9.72-13.6-14.59-25.82-14.59-10.84,0-18.73,4.14-23.66,12.42-4.93,8.28-7.39,18.27-7.39,29.96s2.46,20.6,7.39,28.09c4.93,7.49,12.75,11.24,23.46,11.24,11.76,0,19.83-4.45,24.2-13.36Z"/>
      <path class="cls-2" d="M1534.4,691.76l28.19,85.95,29.47-85.95h19.42l-39.82,105.56h-18.92l-38.93-105.56h20.6Z"/>
      <path class="cls-2" d="M1683.23,733.36c4.07-.53,6.8-2.23,8.18-5.13.79-1.58,1.18-3.84,1.18-6.8,0-6.04-2.15-10.43-6.46-13.16-4.3-2.73-10.46-4.09-18.48-4.09-9.27,0-15.84,2.5-19.71,7.49-2.17,2.76-3.58,6.87-4.24,12.32h-16.56c.33-13.01,4.55-22.06,12.67-27.15,8.11-5.09,17.53-7.64,28.24-7.64,12.42,0,22.51,2.37,30.26,7.1,7.69,4.73,11.53,12.09,11.53,22.08v60.81c0,1.84.38,3.32,1.13,4.44.75,1.12,2.35,1.68,4.78,1.68.79,0,1.68-.05,2.66-.15.99-.1,2.04-.25,3.15-.44v13.11c-2.76.79-4.86,1.28-6.31,1.48-1.45.2-3.42.3-5.91.3-6.11,0-10.55-2.17-13.31-6.51-1.45-2.3-2.46-5.55-3.06-9.76-3.61,4.73-8.81,8.84-15.57,12.32-6.77,3.48-14.23,5.22-22.37,5.22-9.79,0-17.79-2.97-24-8.92-6.21-5.95-9.31-13.39-9.31-22.32,0-9.79,3.06-17.38,9.17-22.77,6.11-5.39,14.13-8.71,24.05-9.96l28.29-3.55ZM1645.87,781.36c3.75,2.96,8.18,4.44,13.31,4.44,6.24,0,12.29-1.44,18.14-4.34,9.86-4.8,14.78-12.65,14.78-23.56v-14.29c-2.17,1.38-4.96,2.53-8.38,3.45-3.42.92-6.77,1.58-10.05,1.97l-10.74,1.38c-6.44.85-11.27,2.2-14.49,4.04-5.45,3.09-8.18,8.02-8.18,14.78,0,5.13,1.87,9.17,5.62,12.12Z"/>
      <path class="cls-2" d="M1742.47,662.29h17.94v29.47h16.85v14.49h-16.85v68.9c0,3.68,1.25,6.15,3.75,7.39,1.38.72,3.68,1.08,6.9,1.08.85,0,1.77-.02,2.76-.05.99-.03,2.13-.11,3.45-.25v14c-2.04.59-4.16,1.02-6.36,1.28-2.2.26-4.58.39-7.15.39-8.28,0-13.9-2.12-16.85-6.36s-4.44-9.74-4.44-16.51v-69.88h-14.29v-14.49h14.29v-29.47Z"/>
      <path class="cls-2" d="M1795,652.53h18.04v20.11h-18.04v-20.11ZM1795,692.25h18.04v105.07h-18.04v-105.07Z"/>
      <path class="cls-2" d="M1916.93,702.31c9.4,9.07,14.09,22.41,14.09,40.02s-4.14,31.08-12.42,42.19c-8.28,11.11-21.13,16.66-38.54,16.66-14.52,0-26.05-4.91-34.6-14.74-8.54-9.82-12.81-23.02-12.81-39.57,0-17.74,4.5-31.87,13.5-42.38,9-10.51,21.09-15.77,36.27-15.77,13.6,0,25.1,4.53,34.5,13.6ZM1905.94,772.53c4.37-8.9,6.55-18.81,6.55-29.72,0-9.86-1.58-17.87-4.73-24.05-4.99-9.72-13.6-14.59-25.82-14.59-10.84,0-18.73,4.14-23.66,12.42-4.93,8.28-7.39,18.27-7.39,29.96s2.46,20.6,7.39,28.09c4.93,7.49,12.75,11.24,23.46,11.24,11.76,0,19.83-4.45,24.2-13.36Z"/>
      <path class="cls-2" d="M1952.11,691.76h16.85v14.98c4.99-6.18,10.28-10.61,15.87-13.31,5.58-2.69,11.79-4.04,18.63-4.04,14.98,0,25.1,5.22,30.36,15.67,2.89,5.72,4.34,13.9,4.34,24.54v67.71h-18.04v-66.53c0-6.44-.95-11.63-2.86-15.57-3.15-6.57-8.87-9.86-17.15-9.86-4.21,0-7.66.43-10.35,1.28-4.86,1.45-9.13,4.34-12.81,8.67-2.96,3.48-4.88,7.08-5.77,10.79-.89,3.71-1.33,9.02-1.33,15.92v55.3h-17.74v-105.56Z"/>
      <path class="cls-2" d="M2074.93,764.21c.53,5.91,2,10.45,4.44,13.6,4.47,5.72,12.22,8.58,23.26,8.58,6.57,0,12.35-1.43,17.35-4.29,4.99-2.86,7.49-7.28,7.49-13.26,0-4.53-2.01-7.98-6.01-10.35-2.56-1.44-7.62-3.12-15.18-5.03l-14.09-3.55c-9-2.23-15.64-4.73-19.91-7.49-7.62-4.8-11.43-11.43-11.43-19.91,0-9.99,3.6-18.07,10.79-24.25,7.2-6.18,16.87-9.27,29.03-9.27,15.9,0,27.37,4.67,34.4,14,4.4,5.91,6.54,12.29,6.41,19.12h-16.76c-.33-4.01-1.74-7.65-4.24-10.94-4.08-4.66-11.14-7-21.19-7-6.7,0-11.78,1.28-15.23,3.84s-5.17,5.95-5.17,10.15c0,4.6,2.27,8.28,6.8,11.04,2.63,1.64,6.51,3.09,11.63,4.34l11.73,2.86c12.75,3.09,21.29,6.08,25.63,8.97,6.9,4.53,10.35,11.66,10.35,21.39s-3.57,17.51-10.69,24.35c-7.13,6.83-17.99,10.25-32.58,10.25-15.71,0-26.83-3.57-33.36-10.69-6.54-7.13-10.04-15.95-10.5-26.46h17.05Z"/>
    </g>
    <g class="cls-1">
      <path class="cls-2" d="M1305.22,69.64h114.5l171.34,484.28h-109.74l-31.96-99.55h-178.34l-32.83,99.55h-105.85l172.87-484.28ZM1298.55,370.92h124.03l-61.18-190.56-62.85,190.56Z"/>
      <path class="cls-2" d="M1878.47,203.06c24.98,11.19,45.61,28.85,61.89,52.98,14.67,21.28,24.18,45.96,28.53,74.04,2.52,16.45,3.55,40.14,3.09,71.07h-260.83c1.45,35.93,13.94,61.11,37.45,75.57,14.3,8.98,31.51,13.47,51.63,13.47,21.33,0,38.66-5.47,51.99-16.43,7.27-5.91,13.7-14.13,19.27-24.64h95.6c-2.52,21.25-14.09,42.82-34.71,64.72-32.08,34.83-76.99,52.24-134.73,52.24-47.66,0-89.71-14.69-126.14-44.06s-54.65-77.17-54.65-143.38c0-62.03,16.44-109.61,49.33-142.71,32.89-33.1,75.58-49.66,128.06-49.66,31.17,0,59.24,5.6,84.22,16.78ZM1738.39,283.95c-13.23,13.64-21.55,32.12-24.94,55.43h161.32c-1.7-24.86-10.02-43.72-24.94-56.59-14.93-12.87-33.44-19.31-55.54-19.31-24.04,0-42.67,6.82-55.89,20.46Z"/>
      <path class="cls-2" d="M2218.26,187.43c1.2.11,3.89.28,8.05.49v95.94c-5.91-.66-11.17-1.09-15.77-1.31-4.6-.22-8.33-.33-11.17-.33-37.68,0-62.97,12.27-75.9,36.8-7.23,13.8-10.84,35.05-10.84,63.74v171.17h-94.29V195.81h89.37v62.42c14.46-23.87,27.05-40.19,37.78-48.95,17.52-14.67,40.3-22.01,68.34-22.01,1.75,0,3.23.06,4.44.16Z"/>
      <path class="cls-2" d="M2579.83,510.12c-30.23,37.31-76.12,55.97-137.66,55.97s-107.44-18.66-137.66-55.97c-30.23-37.31-45.34-82.23-45.34-134.76s15.11-96.4,45.34-134.26c30.23-37.86,76.11-56.79,137.66-56.79s107.44,18.93,137.66,56.79c30.23,37.86,45.34,82.62,45.34,134.26s-15.11,97.45-45.34,134.76ZM2504.92,458.36c14.67-19.47,22.01-47.13,22.01-83.01s-7.34-63.48-22.01-82.84c-14.68-19.35-35.7-29.04-63.08-29.04s-48.46,9.68-63.25,29.04c-14.78,19.35-22.18,46.97-22.18,82.84s7.39,63.54,22.18,83.01c14.78,19.47,35.86,29.19,63.25,29.19s48.4-9.73,63.08-29.19Z"/>
      <path class="cls-2" d="M2838.24,69.64h114.5l171.34,484.28h-109.74l-31.96-99.55h-178.34l-32.83,99.55h-105.85l172.87-484.28ZM2831.57,370.92h124.03l-61.18-190.56-62.85,190.56Z"/>
      <path class="cls-2" d="M3271.43,195.81v215.86c0,20.37,2.4,35.7,7.19,46,8.5,18.18,25.17,27.27,50.02,27.27,31.82,0,53.62-12.92,65.39-38.77,6.1-14.01,9.15-32.53,9.15-55.52v-194.83h94.95v358.12h-91.01v-50.6c-.87,1.1-3.06,4.38-6.55,9.86-3.5,5.48-7.64,10.3-12.45,14.46-14.64,13.14-28.78,22.13-42.43,26.94-13.66,4.82-29.65,7.23-48,7.23-52.86,0-88.46-19.06-106.8-57.17-10.27-21.03-15.4-52.02-15.4-92.98v-215.86h95.94Z"/>
      <path class="cls-2" d="M3552.34,265.79v-66.7h49.94v-99.88h92.65v99.88h58.15v66.7h-58.15v189.25c0,14.68,1.86,23.82,5.58,27.43,3.72,3.61,15.11,5.42,34.17,5.42,2.84,0,5.86-.05,9.04-.16,3.17-.11,6.29-.27,9.36-.49v69.98l-44.35,1.64c-44.25,1.53-74.47-6.13-90.68-23-10.51-10.73-15.77-27.27-15.77-49.61v-220.46h-49.94Z"/>
      <path class="cls-2" d="M4111.86,510.12c-30.23,37.31-76.12,55.97-137.66,55.97s-107.44-18.66-137.66-55.97-45.34-82.23-45.34-134.76,15.11-96.4,45.34-134.26c30.23-37.86,76.11-56.79,137.66-56.79s107.44,18.93,137.66,56.79c30.23,37.86,45.34,82.62,45.34,134.26s-15.11,97.45-45.34,134.76ZM4036.95,458.36c14.67-19.47,22.01-47.13,22.01-83.01s-7.34-63.48-22.01-82.84c-14.68-19.35-35.7-29.04-63.08-29.04s-48.46,9.68-63.25,29.04c-14.78,19.35-22.18,46.97-22.18,82.84s7.39,63.54,22.18,83.01c14.79,19.47,35.86,29.19,63.25,29.19s48.4-9.73,63.08-29.19Z"/>
      <path class="cls-2" d="M4513.01,216.34c23.45,19.38,35.17,51.53,35.17,96.43v241.16h-95.94v-217.83c0-18.84-2.5-33.29-7.5-43.37-9.14-18.4-26.53-27.6-52.18-27.6-31.53,0-53.16,13.47-64.9,40.41-6.09,14.24-9.13,32.42-9.13,54.54v193.84h-93.64V196.46h90.68v52.24c11.99-18.4,23.34-31.65,34.03-39.75,19.19-14.46,43.51-21.68,72.96-21.68,36.86,0,67.01,9.69,90.46,29.08Z"/>
      <path class="cls-2" d="M4933.9,510.12c-30.23,37.31-76.12,55.97-137.66,55.97s-107.44-18.66-137.66-55.97-45.34-82.23-45.34-134.76,15.11-96.4,45.34-134.26c30.23-37.86,76.11-56.79,137.66-56.79s107.44,18.93,137.66,56.79c30.23,37.86,45.34,82.62,45.34,134.26s-15.11,97.45-45.34,134.76ZM4858.99,458.36c14.67-19.47,22.01-47.13,22.01-83.01s-7.34-63.48-22.01-82.84c-14.68-19.35-35.7-29.04-63.08-29.04s-48.46,9.68-63.25,29.04c-14.78,19.35-22.18,46.97-22.18,82.84s7.39,63.54,22.18,83.01c14.79,19.47,35.86,29.19,63.25,29.19s48.4-9.73,63.08-29.19Z"/>
      <path class="cls-2" d="M5493.09,197.12c15.33,6.13,29.24,16.87,41.73,32.2,10.07,12.48,16.86,27.82,20.37,46,2.19,12.05,3.29,29.68,3.29,52.9l-.66,225.71h-95.94v-228.01c0-13.58-2.19-24.75-6.57-33.51-8.33-16.64-23.66-24.97-46-24.97-25.85,0-43.7,10.73-53.55,32.2-5.04,11.39-7.56,25.08-7.56,41.07v213.23h-94.29v-213.23c0-21.24-2.19-36.68-6.57-46.33-7.89-17.3-23.33-25.96-46.33-25.96-26.73,0-44.68,8.66-53.88,25.96-5.04,9.86-7.56,24.53-7.56,44.03v215.53h-94.95V196.46h91.01v52.24c11.61-18.61,22.56-31.87,32.85-39.75,18.18-14.01,41.73-21.03,70.64-21.03,27.38,0,49.5,6.03,66.37,18.07,13.58,11.17,23.87,25.52,30.88,43.04,12.26-21.03,27.48-36.47,45.67-46.33,19.27-9.86,40.74-14.78,64.4-14.78,15.77,0,31.32,3.07,46.65,9.2Z"/>
      <path class="cls-2" d="M5658.68,622.59l11.83.66c9.2.44,17.96.11,26.28-.99,8.32-1.1,15.33-3.61,21.03-7.56,5.47-3.73,10.56-11.5,15.28-23.33,4.71-11.83,6.74-19.06,6.08-21.68l-131.59-373.89h104.15l78.2,264.15,73.92-264.15h99.55l-122.78,352.21c-23.73,67.9-42.5,110.01-56.31,126.33-13.81,16.31-41.44,24.48-82.89,24.48-8.33,0-15.02-.06-20.06-.16-5.05-.11-12.61-.49-22.7-1.15v-74.91Z"/>
    </g>
    <g>
      <path class="cls-2" d="M750.74,374.78s23.55-82.43,34.49-155.6c6.73-47.94-1.68-82.43-44.58-116.07-42.05-33.64-128.69-15.98-172.42,8.41-43.74,25.23-365.03,185.88-365.03,185.88,0,0,250.65-211.95,341.48-262.42,90.84-50.47,178.31-42.9,242.23.84,63.92,43.74,88.31,131.21,68.13,227.94-20.19,96.73-42.9,179.99-42.9,179.99l-61.4-68.97Z"/>
      <path class="cls-2" d="M374.77,117.4s-82.43-23.55-155.6-34.48c-47.94-6.73-82.43,1.68-116.07,44.58-33.64,42.05-15.98,128.69,8.41,172.42,25.23,43.74,185.88,365.03,185.88,365.03,0,0-211.95-250.64-262.42-341.48-50.47-90.84-42.9-178.31.84-242.23C79.56,17.31,167.03-7.08,263.75,13.11c96.73,20.19,179.99,42.9,179.99,42.9l-68.97,61.4Z"/>
      <path class="cls-2" d="M111.51,495.89s-23.55,82.43-34.49,155.6c-6.73,47.94,1.68,82.43,44.58,116.07,42.05,33.64,128.69,15.98,172.42-8.41,43.74-25.23,365.03-185.88,365.03-185.88,0,0-250.65,211.95-341.48,262.42-90.84,50.47-178.31,42.9-242.23-.84C11.42,791.12-12.97,703.64,7.22,606.92c20.19-96.73,42.9-179.99,42.9-179.99l61.4,68.97Z"/>
      <path class="cls-2" d="M487.48,753.27s82.43,23.55,155.6,34.48c47.94,6.73,82.43-1.68,116.07-44.58,33.64-42.05,15.98-128.69-8.41-172.42-24.39-43.74-185.88-365.03-185.88-365.03,0,0,211.95,250.64,262.42,341.48,50.47,90.84,42.9,178.31-.84,242.23-43.74,63.92-131.21,88.31-227.94,68.13-96.73-20.19-179.99-42.9-179.99-42.9l68.97-61.4Z"/>
      <path class="cls-2" d="M485.8,426.92c0,34.48-27.76,62.24-62.24,62.24s-62.24-27.76-62.24-62.24,27.76-62.24,62.24-62.24,62.24,27.76,62.24,62.24Z"/>
    </g>
  </g>
</svg>